<svg xmlns="http://www.w3.org/2000/svg" xml:space="preserve" width="316.3px" height="130.2px" x="0px" y="0px" style="enable-background:new 0 0 316.3 130.2" viewBox="0 0 316.3 130.2"><path d="m315.6 127.4-61.9-52.9c-.4-.3-.9-.5-1.4-.5h-24.5l68.8-70.7c.3-.3.1-.9-.4-.9H260c-.6 0-1.1.2-1.5.6l-41.4 39.1-25.5-22.7c-.4-.4-.9-.5-1.5-.5h-35.6c-.5 0-.7.6-.4 1l29.6 28.6c.4.4.9.6 1.5.6h23l-62.6 58.8c-.4.3-.1.9.4.9h47.6c.6 0 1.1-.2 1.6-.7l22.7-23.4 42.5 43.1c.4.4 1 .6 1.5.6h53.3c.6 0 .8-.6.4-1M55.3 106.3 55.2 91H1.3c-.5 0-.9-.4-.9-.9V74.9c0-1.4.7-2.7 1.8-3.4L64 26.4c3.1-2.3 7.5-.1 7.5 3.8v76.1H55.3zm-1.1-54.8c-.3 0-.5.1-.7.2l-31 22.4c-.5.3-.7.9-.5 1.5s.7.9 1.3.9h32.4V52.8c-.2-.7-.8-1.3-1.5-1.3" class="fill:#2D2A26;"/><path d="M149 39.4c-6.2-7.3-14.7-11.9-27.6-11.9H89.5c-2.6 0-4.7 2.1-4.7 4.7v56c0 2.6 2.1 4.7 4.7 4.7h31.8c9.8 0 18.7-2.6 26.1-10.3 3.8-3.8 8.9-11.7 8.9-22.3.1-10.7-4.7-17.8-7.3-20.9M136.9 72c-1.9 2.3-6.6 6.5-14.6 6.5h-19.6c-.9 0-1.6-.7-1.6-1.6v-33c0-.9.7-1.6 1.6-1.6h19.6c8.2 0 12.9 4.1 14.8 6.5 2.7 3.3 4.2 7.2 4.2 11.5s-1.8 8.5-4.4 11.7" class="fill:#2D2A26;"/></svg>