<svg width="212" height="46" viewBox="0 0 212 46" fill="none" xmlns="http://www.w3.org/2000/svg"><path d="M13.9865 21.2316C18.4038 21.0621 22.896 20.7679 27.0092 20.2494L27.2934 24.0735C18.4587 25.644 8.63176 25.8883 0.968661 25.8883L0.5 21.4759C3.06268 21.4759 5.87963 21.451 8.82122 21.3762V13.2395H13.9914V21.2316H13.9865ZM24.7058 6.17963C24.7058 9.02151 24.7058 12.9952 23.6738 17.946L18.5484 17.5073C19.3013 13.5087 19.4658 10.4225 19.5356 7.89473H3.03276V3.43248H24.7008V6.17963H24.7058ZM35.1859 36.7772C35.1859 42.0222 29.5919 45.0635 20.6125 45.0635C11.6332 45.0635 6.03917 42.0222 6.03917 36.7772C6.03917 31.5322 11.6332 28.6853 20.6125 28.6404C29.5919 28.6903 35.1859 31.7316 35.1859 36.7772ZM11.354 36.7772C11.354 39.4745 14.7393 40.7957 20.6125 40.7957C26.4857 40.7957 29.7763 39.4745 29.8262 36.7772C29.7813 34.2743 26.4409 32.8534 20.6125 32.8534C14.7842 32.8534 11.354 34.2743 11.354 36.7772ZM34.8568 12.2124H40.3561V16.7744H34.8568V28.1518H29.4971V0.884766H34.8568V12.2124Z" fill="white"></path><path d="M81.2874 26.2323H42.5581V21.8199H81.2874V26.2323ZM77.1991 10.3975C77.1542 15.6924 71.276 18.8783 61.8779 18.8334C52.5695 18.8833 46.5566 15.6974 46.5566 10.3975C46.5566 5.09766 52.5695 1.76718 61.8729 1.76718C71.1763 1.76718 77.1492 5.00294 77.1941 10.3975H77.1991ZM76.5858 44.6696H47.1151V29.7622H76.5858V44.6696ZM52.0011 10.3975C51.9562 13.0948 55.6656 14.5656 61.8729 14.6155C68.0751 14.5656 71.7895 13.0948 71.7895 10.3975C71.7895 7.55564 68.0751 6.03499 61.8729 6.03499C55.6706 6.03499 51.9562 7.55564 52.0011 10.3975ZM52.2853 40.2572H71.5103V34.0798H52.2853V40.2572Z" fill="white"></path><path d="M165.48 45.0628C165.52 45.0628 165.54 45.0429 165.54 45.003V38.8606C165.54 38.8207 165.52 38.8007 165.48 38.8007H137.635V26.9446H164.443C164.483 26.9446 164.503 26.9247 164.503 26.8848V20.6825C164.503 20.6426 164.483 20.6227 164.443 20.6227H137.635V8.76658H165.356C165.396 8.76658 165.416 8.74663 165.416 8.70675V2.56929C165.416 2.5294 165.396 2.50946 165.356 2.50946H130.825C130.785 2.50946 130.765 2.5294 130.765 2.56929V45.003C130.765 45.0429 130.785 45.0628 130.825 45.0628H165.48Z" fill="white"></path><path d="M91.0949 45.0628H123.437C123.477 45.0628 123.497 45.0429 123.497 45.003V38.8606C123.497 38.8207 123.477 38.8007 123.437 38.8007H97.9054V2.56929C97.9054 2.5294 97.8855 2.50946 97.8456 2.50946H91.0999C91.06 2.50946 91.04 2.5294 91.04 2.56929V45.003C91.04 45.0429 91.06 45.0628 91.0999 45.0628H91.0949Z" fill="white"></path><path d="M199.041 2.50906H173.932C173.892 2.50906 173.873 2.52901 173.873 2.56889V45.0026C173.873 45.0425 173.892 45.0624 173.932 45.0624H198.731C207.85 45.0624 211.5 40.321 211.5 31.7505V15.3922C211.5 7.00123 207.855 2.50408 199.041 2.50408V2.50906ZM204.635 34.6073C204.635 37.524 203.054 38.8003 200.317 38.8003H180.743V8.76618H200.686C203.358 8.76618 204.64 10.1024 204.64 12.8395V34.6023L204.635 34.6073Z" fill="white"></path></svg>