<svg xmlns="http://www.w3.org/2000/svg" id="_레이어_1" version="1.1" viewBox="0 0 450 72"><defs><style>.st0{fill:#fff}</style></defs><path d="m100.15 36.28-.62-4.94c2.88 0 6-.03 9.36-.08s6.77-.17 10.22-.36 6.77-.48 9.96-.86l.42 4.37c-3.29.55-6.66.96-10.09 1.22s-6.79.43-10.06.52c-3.28.09-6.34.13-9.18.13zm2.23-24.29h20.64v4.94h-20.64zm19.71 27.2c3.36 0 6.27.36 8.74 1.07s4.35 1.72 5.67 3.04 1.98 2.91 1.98 4.78-.66 3.48-1.98 4.81-3.21 2.36-5.67 3.07-5.37 1.07-8.74 1.07-6.22-.36-8.68-1.07-4.35-1.73-5.67-3.07c-1.32-1.33-1.98-2.94-1.98-4.81s.66-3.47 1.98-4.78c1.32-1.32 3.21-2.33 5.67-3.04s5.36-1.07 8.68-1.07m-13.47-16.64h6.08v11.7h-6.08zm13.47 21.37c-3.22 0-5.71.35-7.46 1.04S112 46.69 112 48.08s.88 2.38 2.63 3.07 4.24 1.04 7.46 1.04 5.7-.35 7.44-1.04c1.73-.69 2.6-1.72 2.6-3.07s-.87-2.43-2.6-3.12-4.21-1.04-7.44-1.04m-1.51-31.93h6.08v2.91c0 1.59-.05 3.44-.16 5.54q-.15 3.15-.99 7.2l-6.03-.52c.55-2.6.88-4.89.96-6.86.09-1.98.13-3.76.13-5.36v-2.91zm11.24-2.75h6.24v29.38h-6.24zm3.69 12.11h8.58v5.1h-8.58zM147.94 31.81h43.26v4.89h-43.26zm21.63-21.58c3.5 0 6.53.36 9.1 1.09s4.55 1.79 5.95 3.17c1.4 1.39 2.11 3.05 2.11 4.99s-.7 3.55-2.11 4.94c-1.4 1.39-3.39 2.44-5.95 3.17s-5.6 1.09-9.1 1.09-6.49-.36-9.07-1.09-4.58-1.79-5.98-3.17c-1.4-1.39-2.11-3.03-2.11-4.94s.7-3.61 2.11-4.99c1.4-1.39 3.4-2.44 5.98-3.17s5.61-1.09 9.07-1.09m-16.55 30.16h32.97v16.17h-32.97zm16.55-25.38c-2.25 0-4.2.17-5.82.49-1.63.33-2.87.82-3.72 1.48s-1.27 1.49-1.27 2.5c0 .94.42 1.73 1.27 2.39s2.09 1.16 3.72 1.51 3.57.52 5.82.52 4.24-.17 5.85-.52 2.84-.85 3.69-1.51 1.27-1.46 1.27-2.39c0-1.01-.42-1.84-1.27-2.5s-2.08-1.15-3.69-1.48-3.56-.49-5.85-.49m10.34 30.26h-20.8v6.4h20.8zM222.24 13.09h5.1v7.38c0 2.98-.29 5.86-.88 8.63s-1.47 5.37-2.63 7.77c-1.16 2.41-2.6 4.52-4.32 6.34s-3.7 3.27-5.95 4.34l-3.69-5.1c1.98-.9 3.73-2.11 5.28-3.64 1.54-1.52 2.84-3.27 3.9-5.23s1.85-4.06 2.39-6.32q.81-3.375.81-6.81v-7.38.02Zm1.2 0h5.04v7.38c0 2.22.26 4.39.78 6.53q.78 3.195 2.34 6.03c1.04 1.89 2.31 3.55 3.82 4.99s3.25 2.59 5.23 3.46l-3.64 4.99c-2.22-1-4.17-2.39-5.85-4.16s-3.09-3.8-4.24-6.08c-1.14-2.29-2.01-4.77-2.6-7.46s-.88-5.45-.88-8.29V13.1Zm20.22-3.85h6.24v47.94h-6.24zM260.15 13.97h6.08v27.87h-6.08zm0 26.26h3.28c2.84 0 5.56-.09 8.16-.26s5.3-.55 8.11-1.14l.83 5.2c-2.95.62-5.78 1.02-8.5 1.2-2.72.17-5.59.26-8.61.26h-3.28v-5.25h.01Zm13.31-15.6h11.18v4.99h-11.18zm9.73-14.46h5.77v44.72h-5.77zm10.14-.93h5.93v47.84h-5.93zM307.63 13.81h22.62v31.51h-22.62zm16.53 4.89h-10.5v21.74h10.5zm12.94-9.41h6.19v47.84h-6.19zm4.84 18.3h8.53v5.1h-8.53z" class="st0"/></svg>