<svg xmlns="http://www.w3.org/2000/svg" id="_레이어_1" version="1.1" viewBox="0 0 450 72"><defs><style>.st0{fill:#fff}</style></defs><path id="_패스_14782" d="M5.97 60q-.07 0-.07-.07V53q0-.07.07-.07h30.24c2.32 0 3.22-.97 3.22-3.29v-6.99c0-2.4-.89-3.36-3.22-3.36H15.57c-7.2 0-9.87-2.88-9.87-10.01v-7.13C5.7 15.09 8.51 12 15.71 12h31.06q.07 0 .07.07V19q0 .07-.07.07H16.74c-2.4 0-3.29 1.03-3.29 3.36v6.52c0 2.32.89 3.29 3.29 3.29h20.71c6.92 0 9.74 3.02 9.74 10.01v7.74c0 6.99-2.81 10.01-9.74 10.01z" class="st0"/><path id="_패스_14783" d="M62.46 60c-6.99 0-9.67-3.02-9.67-10.01V12.07q0-.07.07-.07h7.55q.07 0 .07.07v37.57c0 2.32.89 3.29 3.22 3.29h19.13c2.26 0 3.15-.97 3.15-3.29V12.07q0-.07.07-.07h7.61q.07 0 .07.07v37.91c0 6.99-2.74 10.01-9.74 10.01H62.45Z" class="st0"/><path id="_패스_14784" d="M101.55 60q-.14 0-.14-.14V12.14q0-.14.14-.14h30.85c6.99 0 9.74 3.02 9.74 10.01v10.76c0 6.99-2.74 10.01-9.74 10.01h-23.23v17.07q0 .14-.14.14h-7.48Zm7.61-24.28h22.01c2.32 0 3.22-.97 3.22-3.29V22.36c0-2.32-.89-3.29-3.22-3.29h-22.01z" class="st0"/><path id="_패스_14785" d="M148.38 60q-.07 0-.07-.07V12.07q0-.07.07-.07h38.94q.07 0 .07.07V19q0 .07-.07.07h-31.27v13.36h30.24q.07 0 .07.07v6.99q0 .07-.07.07h-30.24v13.37h31.4q.07 0 .07.07v6.93q0 .07-.07.07h-39.08Z" class="st0"/><path id="_패스_14786" d="M194.38 60q-.07 0-.07-.07V12.07q0-.07.07-.07h33.66c6.99 0 9.74 3.02 9.74 10.01v7.2c0 5.9-3.08 8.36-9.53 8.36v.14c6.38 0 9.53 2.32 9.53 8.5v13.71q0 .07-.07.07h-7.61q-.07 0-.07-.07V44.84c0-2.81-1.03-3.63-3.97-3.63h-24v18.72q0 .07-.07.07zm7.68-25.85h24c2.81 0 3.97-.48 3.97-3.29v-8.5c0-2.32-.89-3.29-3.15-3.29h-24.82z" class="st0"/><path id="_패스_14787" d="M262.26 60q-.14 0-.14-.14V12.14q0-.14.14-.14h30.85c6.99 0 9.74 3.02 9.74 10.01v10.76c0 6.99-2.74 10.01-9.74 10.01h-23.23v17.07q0 .14-.14.14h-7.48Zm7.61-24.27h22.01c2.32 0 3.22-.97 3.22-3.29V22.37c0-2.32-.89-3.29-3.22-3.29h-22.01z" class="st0"/><path id="_패스_14788" d="M309.1 60q-.07 0-.07-.07V12.07q0-.07.07-.07h7.61q.07 0 .07.07v40.86h28.8q.07 0 .07.07v6.92q0 .07-.07.07h-36.47Z" class="st0"/><path id="_패스_14789" d="M351.05 60q-.07 0-.07-.07V12.07q0-.07.07-.07h38.94q.07 0 .07.07V19q0 .07-.07.07h-31.26v13.36h30.24q.07 0 .07.07v6.99q0 .07-.07.07h-30.24v13.37h31.4q.07 0 .07.07v6.93q0 .07-.07.07z" class="st0"/><path id="_패스_14790" d="M393.49 60h-.14l20.36-24.41L393.77 12h9.67l15.36 18.17L433.95 12h9.6L423.8 35.59 444.3 60h-10.08l-15.43-18.72L402.95 60h-9.47Z" class="st0"/></svg>