<svg xmlns="http://www.w3.org/2000/svg" id="_레이어_1" version="1.1" viewBox="0 0 450 72"><defs><style>.st0{fill:#fff}</style></defs><path id="_패스_14782" d="M29.19 60s-.07-.02-.07-.07V53s.02-.07.07-.07h30.24c2.32 0 3.22-.97 3.22-3.29v-6.99c0-2.4-.89-3.36-3.22-3.36H38.79c-7.2 0-9.87-2.88-9.87-10.01v-7.13c0-7.06 2.81-10.15 10.01-10.15h31.06s.07.02.07.07V19s-.02.07-.07.07H39.96c-2.4 0-3.29 1.03-3.29 3.36v6.52c0 2.32.89 3.29 3.29 3.29h20.71c6.92 0 9.74 3.02 9.74 10.01v7.74c0 6.99-2.81 10.01-9.74 10.01z" class="st0"/><path id="_패스_14783" d="M85.68 60c-6.99 0-9.67-3.02-9.67-10.01V12.07s.02-.07.07-.07h7.55s.07.02.07.07v37.57c0 2.32.89 3.29 3.22 3.29h19.13c2.26 0 3.15-.97 3.15-3.29V12.07s.02-.07.07-.07h7.61s.07.02.07.07v37.91c0 6.99-2.74 10.01-9.74 10.01H85.67Z" class="st0"/><path id="_패스_14784" d="M124.77 60c-.09 0-.14-.05-.14-.14V12.14c0-.09.05-.14.14-.14h30.85c6.99 0 9.74 3.02 9.74 10.01v10.76c0 6.99-2.74 10.01-9.74 10.01h-23.23v17.07c0 .09-.05.14-.14.14h-7.48Zm7.61-24.28h22.01c2.32 0 3.22-.97 3.22-3.29V22.36c0-2.32-.89-3.29-3.22-3.29h-22.01z" class="st0"/><path id="_패스_14785" d="M171.6 60s-.07-.02-.07-.07V12.07s.02-.07.07-.07h38.94s.07.02.07.07V19s-.02.07-.07.07h-31.27v13.36h30.24s.07.02.07.07v6.99s-.02.07-.07.07h-30.24v13.37h31.4s.07.02.07.07v6.93s-.02.07-.07.07h-39.08z" class="st0"/><path id="_패스_14786" d="M217.6 60s-.07-.02-.07-.07V12.07s.02-.07.07-.07h33.66c6.99 0 9.74 3.02 9.74 10.01v7.2c0 5.9-3.08 8.36-9.53 8.36v.14c6.38 0 9.53 2.32 9.53 8.5v13.71s-.02.07-.07.07h-7.61s-.07-.02-.07-.07V44.84c0-2.81-1.03-3.63-3.97-3.63h-24v18.72s-.02.07-.07.07zm7.68-25.85h24c2.81 0 3.97-.48 3.97-3.29v-8.5c0-2.32-.89-3.29-3.15-3.29h-24.82z" class="st0"/><path id="_패스_16511" d="M285.41 59.99s-.07-.02-.07-.07V12.07s.02-.07.07-.07H293s.07.02.07.07v40.86h28.72s.07.02.07.07v6.93s-.02.07-.07.07h-36.38Z" class="st0"/><path id="_패스_16512" d="M330.21 59.99s-.07-.02-.07-.07V12.07s.02-.07.07-.07h38.83s.07.02.07.07V19s-.02.07-.07.07h-31.17v13.38h30.16s.07.02.07.07v6.99s-.02.07-.07.07h-30.16v13.38h31.32s.07 0 .07.07v6.93s-.02.07-.07.07h-38.98Z" class="st0"/><path id="_패스_16513" d="M386.48 52.93h22.01c3.08 0 4.85-1.44 4.85-4.73V23.66c0-3.09-1.44-4.6-4.44-4.6h-22.43v33.87zm-7.66 7.06s-.07-.02-.07-.07V12.07s.02-.07.07-.07h28.24c9.91 0 14.01 5.08 14.01 14.53v18.44c0 9.67-4.1 15.01-14.36 15.01h-27.9Z" class="st0"/></svg>