<svg xmlns="http://www.w3.org/2000/svg" xml:space="preserve" x="0px" y="0px" style="enable-background:new 0 0 283.5 141.7" viewBox="0 0 283.5 141.7"><g fill="#E60012"><path d="M283.4 124c-.1-.2-.2-.3-.4-.4l-44.9-25.4c-.6-.3-.6-.8 0-1.2l24.2-14.4c.6-.3 1-1 1-1.7V19c0-.7-.4-1.3-1.1-1.5L216.7.2c-.7-.3-1.4-.2-2.1.1l-50 27c-.6.3-1 1-1 1.7l.1 65.6c-.1.7.4 1.4 1.1 1.6l45.9 17.5c.7.3 1.4.6 2 1.1l40.2 26.7c.6.4 1.3.4 1.9.1l28.2-16.8c.4-.2.5-.5.4-.8zm-53.9-29.1c-.2 0-.4 0-.5-.1L198 83c-.7-.2-1.1-.8-1.1-1.5V22.6c-.1-.4.2-.7.5-.8.2 0 .4 0 .5.1L229 33.7c.7.2 1.1.8 1.1 1.5v58.9c.1.4-.2.8-.6.8zM6.2 45.1C2.1 49 0 53.9 0 59.8s2.1 10.8 6.2 14.7c4.1 3.9 9.4 5.9 15.8 5.9 5.4 0 9.7-1.1 12.8-3.2v-6c-3.6 2.9-7.9 4.4-12.9 4.4-4.5 0-8.2-1.5-11-4.5-2.9-3-4.3-6.8-4.3-11.2 0-4.5 1.4-8.2 4.3-11.2s6.5-4.5 11-4.5c5 0 9.3 1.5 12.9 4.4v-6.1c-3.2-2.1-7.5-3.1-12.8-3.1-6.4-.1-11.7 1.8-15.8 5.7zM43.3 40.8c1.2.4 2 1.4 2.4 2.8.3 1 .4 2.8.4 5.3v30.6h6.1V40.1h-8.9v.7zM96.4 70.1l-25.3-30h-7.8v.6c1.2.5 2 1.4 2.4 2.9.3 1 .4 2.8.4 5.3v30.6h5.3V49.3l25.2 30.2h5.1V40.1h-5.3v30zM121 61.8h16.5v-4.5H121V44.8h17.1v-4.7h-26v.6c1.2.5 2 1.4 2.4 2.9.3 1 .4 2.8.4 5.3v30.6h23.8v-4.7H121v-13z"/></g></svg>